#!OML:ASF E:\acrobat2\Project_11_07_03\Capture day 1\Session 1\Acrobat.ASF
:FULLY-SPECIFIED
:DEGREES
238
root 8.96011 17.8203 -31.5132 5.66236 -4.56109 -0.377397
lowerback -2.38284 2.92724 0.631008
upperback -0.200239 3.93144 -3.31815
thorax 1.40501 1.98163 -3.61736
lowerneck 1.47626 -0.973893 -0.528999
upperneck 2.25964 -1.36069 3.70831
head 0.477689 -0.668844 1.22578
rclavicle -9.34288e-015 -7.95139e-016
rhumerus -42.4535 0.380924 -87.3018
rradius 28.9811
rwrist 4.84438
rhand 1.8183 -46.9539
rfingers 7.12502
rthumb 27.3308 -74.9926
lclavicle -9.34288e-015 -7.95139e-016
lhumerus -35.897 -10.5582 86.9655
lradius 15.3848
lwrist 4.27886
lhand -6.25691 -8.97075
lfingers 7.12502
lthumb 19.5854 20.0627
rfemur 11.2679 1.89512 19.0684
rtibia 22.463
rfoot -8.04565 -5.8329
rtoes 0.681029
lfemur -19.1104 1.05588 -16.9018
ltibia 9.49384
lfoot -0.521805 2.60322
ltoes 31.0807
239
root 8.98155 17.8512 -31.3673 5.68778 -4.66061 -0.51664
lowerback -2.51331 2.94282 0.674624
upperback -0.24893 3.95122 -3.317
thorax 1.43229 1.99151 -3.63416
lowerneck 1.323 -0.930189 -0.681381
upperneck 2.51408 -1.31499 3.85718
head 0.583156 -0.642124 1.2983
rclavicle -1.46107e-014 2.70347e-014
rhumerus -42.6231 0.628654 -87.2912
rradius 29.1738
rwrist 4.61337
rhand 1.94062 -46.9695
rfingers 7.12502
rthumb 27.4478 -74.9897
lclavicle -1.46107e-014 2.70347e-014
lhumerus -35.7215 -10.9361 87.1153
lradius 15.6703
lwrist 4.53479
lhand -5.9645 -8.70042
lfingers 7.12502
lthumb 19.8665 20.3042
rfemur 10.3521 1.34104 18.687
rtibia 24.3372
rfoot -5.95859 -6.082
rtoes 2.80542
lfemur -18.4876 1.11737 -16.8555
ltibia 9.33366
lfoot -0.782854 2.32315
ltoes 31.3742
240
root 9.00267 17.8782 -31.2254 5.70933 -4.73819 -0.636046
lowerback -2.57804 2.95811 0.689863
upperback -0.32146 3.97005 -3.32178
thorax 1.39668 1.99992 -3.64554
lowerneck 1.16956 -0.884638 -0.750235
upperneck 2.76792 -1.26525 3.95376
head 0.687552 -0.612829 1.34052
rclavicle 1.73937e-014 -1.35174e-014
rhumerus -42.8222 0.927697 -87.3151
rradius 29.4068
rwrist 4.37021
rhand 2.07222 -46.9833
rfingers 7.12502
rthumb 27.5737 -74.9835
lclavicle 1.73937e-014 -1.35174e-014
lhumerus -35.5923 -11.4343 87.3166
lradius 16.0186
lwrist 4.91016
lhand -5.76731 -8.27486
lfingers 7.12502
lthumb 20.056 20.71
rfemur 9.37523 0.772203 18.3057
rtibia 26.2736
rfoot -3.89287 -6.38627
rtoes 5.16967
lfemur -17.8939 1.18449 -16.841
ltibia 9.19749
lfoot -1.00047 2.03706
ltoes 31.5005
241
root 9.02309 17.9015 -31.0873 5.71463 -4.7759 -0.69764
lowerback -2.57385 2.95222 0.630811
upperback -0.405489 3.96158 -3.33216
thorax 1.30411 1.99361 -3.62646
lowerneck 1.01565 -0.85603 -0.747727
upperneck 2.98576 -1.23539 3.98447
head 0.780453 -0.593526 1.34984
rclavicle -7.65321e-015 -1.98785e-014
rhumerus -43.0229 1.28516 -87.3591
rradius 29.6566
rwrist 4.16861
rhand 2.19631 -46.9424
rfingers 7.12502
rthumb 27.6923 -74.9236
lclavicle -7.65321e-015 -1.98785e-014
lhumerus -35.4867 -11.9789 87.544
lradius 16.4128
lwrist 5.37586
lhand -5.65646 -7.7672
lfingers 7.12502
lthumb 20.1626 21.2065
rfemur 8.36632 0.200872 17.8958
rtibia 28.2648
rfoot -1.89972 -6.74088
rtoes 7.84038
lfemur -17.3232 1.23887 -16.9037
ltibia 9.09567
lfoot -1.18449 1.72678
ltoes 31.3565
242
root 9.04278 17.9217 -30.9515 5.68877 -4.78495 -0.677967
lowerback -2.52402 2.92181 0.463403
upperback -0.476088 3.92282 -3.34283
thorax 1.19051 1.97159 -3.55039
lowerneck 0.841636 -0.831472 -0.688545
upperneck 3.16819 -1.20835 3.94921
head 0.864912 -0.575706 1.3286
rclavicle 3.21037e-014 -3.81667e-014
rhumerus -43.1826 1.69257 -87.3972
rradius 29.9016
rwrist 4.03807
rhand 2.29109 -46.8186
rfingers 7.12502
rthumb 27.7829 -74.7852
lclavicle 3.21037e-014 -3.81667e-014
lhumerus -35.3665 -12.5207 87.7863
lradius 16.8387
lwrist 5.89147
lhand -5.68902 -7.4749
lfingers 7.12502
lthumb 20.1313 21.5021
rfemur 7.35045 -0.352971 17.433
rtibia 30.2946
rfoot -0.0067673 -7.13595
rtoes 10.5418
lfemur -16.7463 1.26625 -17.0679
ltibia 9.01472
lfoot -1.36479 1.39739
ltoes 30.9737
243
root 9.06165 17.9393 -30.8173 5.6299 -4.78533 -0.571667
lowerback -2.46026 2.8656 0.182285
upperback -0.507442 3.85288 -3.35232
thorax 1.10008 1.9342 -3.41016
lowerneck 0.584522 -0.778361 -0.629453
upperneck 3.37949 -1.14435 3.90225
head 0.971673 -0.538351 1.3041
rclavicle 1.02374e-014 -1.59028e-014
rhumerus -43.2505 2.14764 -87.4208
rradius 30.1311
rwrist 3.984
rhand 2.35072 -46.6344
rfingers 7.12502
rthumb 27.84 -74.5917
lclavicle 1.02374e-014 -1.59028e-014
lhumerus -35.1829 -13.0022 88.009
lradius 17.2965
lwrist 6.41769
lhand -5.83042 -7.39678
lfingers 7.12502
lthumb 19.9954 21.5944
rfemur 6.3298 -0.870629 16.9112
rtibia 32.3521
rfoot 1.76681 -7.55098
rtoes 12.929
lfemur -16.1479 1.27074 -17.3341
ltibia 8.93476
lfoot -1.55699 1.06009
ltoes 30.4651
244
root 9.07937 17.9551 -30.684 5.54047 -4.79447 -0.390266
lowerback -2.37629 2.79914 -0.196142
upperback -0.51435 3.77138 -3.36709
thorax 1.01752 1.89113 -3.22158
lowerneck 0.341438 -0.735798 -0.563821
upperneck 3.51467 -1.09209 3.85221
head 1.05288 -0.5079 1.27757
rclavicle -1.30204e-014 -8.74653e-015
rhumerus -43.2618 2.58172 -87.4135
rradius 30.3552
rwrist 4.02445
rhand 2.37743 -46.4157
rfingers 7.12502
rthumb 27.8655 -74.3689
lclavicle -1.30204e-014 -8.74653e-015
lhumerus -34.9636 -13.4504 88.2086
lradius 17.7883
lwrist 6.93407
lhand -6.045 -7.6274
lfingers 7.12502
lthumb 19.7891 21.3852
rfemur 5.30016 -1.33702 16.3458
rtibia 34.4348
rfoot 3.42375 -7.98606
rtoes 14.8845
lfemur -15.514 1.27351 -17.681
ltibia 8.82997
lfoot -1.75367 0.722484
ltoes 29.9882
